<?xml version="1.0" encoding="UTF-8" standalone="no"?>
<svg
   width="100"
   height="100"
   xml:space="preserve"
   version="1.1"
   id="svg4"
   sodipodi:docname="aves_icon_for_AS_ic_launcher_mono.svg"
   inkscape:version="1.3.2 (091e20ef0f, 2023-11-25)"
   xmlns:inkscape="http://www.inkscape.org/namespaces/inkscape"
   xmlns:sodipodi="http://sodipodi.sourceforge.net/DTD/sodipodi-0.dtd"
   xmlns="http://www.w3.org/2000/svg"
   xmlns:svg="http://www.w3.org/2000/svg"><defs
     id="defs4" /><sodipodi:namedview
     id="namedview4"
     pagecolor="#ffffff"
     bordercolor="#666666"
     borderopacity="1.0"
     inkscape:showpageshadow="2"
     inkscape:pageopacity="0.0"
     inkscape:pagecheckerboard="0"
     inkscape:deskcolor="#d1d1d1"
     inkscape:zoom="7.93"
     inkscape:cx="50"
     inkscape:cy="50"
     inkscape:window-width="1870"
     inkscape:window-height="1011"
     inkscape:window-x="0"
     inkscape:window-y="0"
     inkscape:window-maximized="1"
     inkscape:current-layer="svg4" /><path
     d="m 41.031165,57.115414 8.305589,8.305589 a 1.4677611,1.4677611 0 0 1 0,2.07616 l -3.97075,3.97075 a 7.5983256,7.5983256 0 0 1 -10.745837,0 l -3.969799,-3.97075 a 1.4677611,1.4677611 0 0 1 0,-2.07616 l 8.304638,-8.304638 a 1.4677611,1.4677611 0 0 1 2.076159,0 z"
     style="fill:#000000;fill-opacity:1;fill-rule:evenodd;stroke:none;stroke-width:1.53871;stroke-linecap:round;stroke-linejoin:round;stroke-dasharray:none;stroke-opacity:1"
     id="path1" /><path
     style="fill:#000000;fill-opacity:1;fill-rule:evenodd;stroke:none;stroke-width:1.5387;stroke-linecap:round;stroke-linejoin:round"
     d="m 53.429528,44.7157 8.306272,8.306272 a 1.4639586,1.4639586 0 0 1 -6.72e-4,2.075055 l -8.3056,8.3056 a 1.4639586,1.4639586 0 0 1 -2.075728,0 l -8.305599,-8.3056 a 1.4639586,1.4639586 0 0 1 0,-2.075727 L 51.3538,44.7157 a 1.4639586,1.4639586 0 0 1 2.075728,0 z"
     id="path2" /><path
     style="fill:#000000;fill-opacity:1;fill-rule:evenodd;stroke:none;stroke-width:1.5387;stroke-linecap:round;stroke-linejoin:round;stroke-dasharray:none;stroke-opacity:1"
     d="m 55.448306,40.622114 a 1.4677611,1.4677611 0 0 0 0,2.07616 l 8.305589,8.304638 a 1.4677611,1.4677611 0 0 0 2.076159,0 l 8.304638,-8.304638 a 1.4677611,1.4677611 0 0 0 0,-2.07616 l -4.121899,-4.12285 a 7.3834849,7.3834849 0 0 0 -10.442588,0 z m 8.197218,-0.10742 a 1.6208113,1.6208113 0 0 1 2.291,0 1.6208113,1.6208113 0 0 1 0,2.291 1.6208113,1.6208113 0 0 1 -2.291,0 1.6208113,1.6208113 0 0 1 0,-2.291 z"
     id="path3" /><path
     d="m 37.260046,28.544455 12.12614,12.126141 a 1.4677611,1.4677611 0 0 1 0,2.076159 l -8.305588,8.304638 a 1.4677611,1.4677611 0 0 1 -2.07616,0 L 33.61631,45.665166 a 11.467359,11.467359 0 0 1 0,-16.217619 l 0.903091,-0.903092 a 1.9373686,1.9373686 0 0 1 2.739694,0 z"
     style="fill:#000000;fill-opacity:1;fill-rule:evenodd;stroke:none;stroke-width:1.53871;stroke-linecap:round;stroke-linejoin:round;stroke-dasharray:none;stroke-opacity:1"
     id="path4" /></svg>
