<svg viewBox="0 0 108 108" xmlns="http://www.w3.org/2000/svg"><path fill="#fff" d="M0 0h108v108H0z"/><path d="M29.77 36.566l30.678 30.679a1.306 1.306 0 001.846 0l5.717-5.717a3.66 3.66 0 000-5.177L46.021 34.36a4.456 4.456 0 00-3.152-1.305H31.225a2.057 2.057 0 00-1.455 3.511z" fill="#3f51b5" stroke="#000" stroke-width="1.345" stroke-linejoin="round"/><path d="M47.258 63.456v15.497a1.379 1.379 0 002.353.975l7.059-7.06a3.328 3.328 0 000-4.705l-6.085-6.086a1.95 1.95 0 00-3.328 1.38z" fill="#4caf50" stroke="#000" stroke-width="1.345" stroke-linejoin="round"/><path d="M70.6 49.53V34.032a1.379 1.379 0 00-2.353-.974l-7.059 7.06a3.328 3.328 0 000 4.706l6.085 6.085a1.95 1.95 0 003.328-1.38z" fill="#ffc107" stroke="#000" stroke-width="1.345" stroke-linejoin="round"/><path d="M79.744 37.015l-4.058-4.059a1.035 1.035 0 00-1.766.731v3.328a2.496 2.496 0 002.497 2.496h2.294a1.462 1.462 0 001.033-2.496z" fill="#ff5722" stroke="#000" stroke-width="1.345" stroke-linejoin="round"/></svg>