<?xml version="1.0" encoding="UTF-8" standalone="no"?>
<svg
   width="100"
   height="100"
   xml:space="preserve"
   version="1.1"
   id="svg4"
   sodipodi:docname="aves_icon_for_AS_ic_launcher_foreground.svg"
   inkscape:version="1.3.2 (091e20ef0f, 2023-11-25)"
   xmlns:inkscape="http://www.inkscape.org/namespaces/inkscape"
   xmlns:sodipodi="http://sodipodi.sourceforge.net/DTD/sodipodi-0.dtd"
   xmlns="http://www.w3.org/2000/svg"
   xmlns:svg="http://www.w3.org/2000/svg"><defs
     id="defs4" /><sodipodi:namedview
     id="namedview4"
     pagecolor="#ffffff"
     bordercolor="#666666"
     borderopacity="1.0"
     inkscape:showpageshadow="2"
     inkscape:pageopacity="0.0"
     inkscape:pagecheckerboard="0"
     inkscape:deskcolor="#d1d1d1"
     inkscape:zoom="7.93"
     inkscape:cx="50"
     inkscape:cy="50"
     inkscape:window-width="1866"
     inkscape:window-height="1011"
     inkscape:window-x="0"
     inkscape:window-y="0"
     inkscape:window-maximized="1"
     inkscape:current-layer="svg4" /><path
     d="m 40.44103,57.441618 8.737,8.737 a 1.544,1.544 0 0 1 0,2.184 l -4.177,4.177 a 7.993,7.993 0 0 1 -11.304,0 l -4.176,-4.177 a 1.544,1.544 0 0 1 0,-2.184 l 8.736,-8.736 a 1.544,1.544 0 0 1 2.184,0 z"
     style="fill:#ef435a;fill-opacity:1;fill-rule:evenodd;stroke:#000000;stroke-width:1.61863;stroke-linecap:round;stroke-linejoin:round;stroke-dasharray:none;stroke-opacity:1"
     id="path1" /><path
     style="fill:#e0e0e0;fill-rule:evenodd;stroke:#000000;stroke-width:1.61862;stroke-linecap:round;stroke-linejoin:round"
     d="m 53.483392,44.397834 8.737719,8.737719 a 1.54,1.54 0 0 1 -7.07e-4,2.182838 l -8.737012,8.737012 a 1.54,1.54 0 0 1 -2.183546,0 l -8.737011,-8.737012 a 1.54,1.54 0 0 1 0,-2.183545 l 8.737011,-8.737012 a 1.54,1.54 0 0 1 2.183546,0 z"
     id="path2" /><path
     style="fill:#ffc11f;fill-opacity:1;fill-rule:evenodd;stroke:#000000;stroke-width:1.61862;stroke-linecap:round;stroke-linejoin:round;stroke-dasharray:none;stroke-opacity:1"
     d="m 55.60703,40.091618 a 1.544,1.544 0 0 0 0,2.184 l 8.737,8.736 a 1.544,1.544 0 0 0 2.184,0 l 8.736,-8.736 a 1.544,1.544 0 0 0 0,-2.184 l -4.336,-4.337 a 7.767,7.767 0 0 0 -10.985,0 z m 8.623,-0.113 a 1.705,1.705 0 0 1 2.41,0 1.705,1.705 0 0 1 0,2.41 1.705,1.705 0 0 1 -2.41,0 1.705,1.705 0 0 1 0,-2.41 z"
     id="path3" /><path
     d="m 36.47403,27.386618 12.756,12.756 a 1.544,1.544 0 0 1 0,2.184 l -8.737,8.736 a 1.544,1.544 0 0 1 -2.184,0 l -5.668,-5.666 a 12.063,12.063 0 0 1 0,-17.06 l 0.95,-0.95 a 2.038,2.038 0 0 1 2.882,0 z"
     style="fill:#1cc8eb;fill-opacity:1;fill-rule:evenodd;stroke:#000000;stroke-width:1.61863;stroke-linecap:round;stroke-linejoin:round;stroke-dasharray:none;stroke-opacity:1"
     id="path4" /></svg>
