<svg xmlns="http://www.w3.org/2000/svg" viewBox="0 0 108 108"><path fill="#fff" d="M0 0h108v108H0z"/><path d="M15.979 25.53l47.67 47.67a2.028 2.028.001 002.868 0l8.884-8.884a5.688 5.688 90.001 000-8.044l-34.17-34.17a6.924 6.924 22.5 00-4.896-2.028H18.239a3.196 3.196 112.5 00-2.26 5.456z" fill="#3f51b5" stroke="#000" stroke-width="1.965" stroke-linejoin="round"/><path d="M43.152 67.313v24.08a2.142 2.142 22.5 003.657 1.515l10.97-10.97a5.171 5.171 90 000-7.312l-9.456-9.455a3.03 3.03 157.5 00-5.17 2.142z" fill="#4caf50" stroke="#000" stroke-width="1.965" stroke-linejoin="round"/><path d="M79.423 45.673v-24.08a2.142 2.142 22.5 00-3.656-1.515l-10.97 10.97a5.171 5.171 90 000 7.312l9.455 9.455a3.03 3.03 157.5 005.171-2.142z" fill="#ffc107" stroke="#000" stroke-width="1.965" stroke-linejoin="round"/><path d="M93.633 26.227l-6.307-6.307a1.606 1.606 157.5 00-2.743 1.136v5.171a3.878 3.878 45 003.879 3.878h3.564a2.272 2.272 112.5 001.607-3.878z" fill="#ff5722" stroke="#000" stroke-width="1.965" stroke-linejoin="round"/></svg>