<svg xmlns="http://www.w3.org/2000/svg" viewBox="0 0 108 108"><path fill="#fff" d="M0 0h108v108H0z"/><path d="M28.197 37.308l32.616 32.616a1.388 1.388.001 001.963 0l6.078-6.078a3.892 3.892 90.001 000-5.504l-23.38-23.38a4.737 4.737 22.5 00-3.35-1.387h-12.38a2.187 2.187 112.5 00-1.547 3.733z" fill="#3f51b5" stroke="#000" stroke-width="1.345" stroke-linejoin="round"/><path d="M46.79 65.896v16.476a1.466 1.466 22.5 002.501 1.036l7.505-7.505a3.538 3.538 90 000-5.003l-6.469-6.47a2.073 2.073 157.5 00-3.538 1.466z" fill="#4caf50" stroke="#000" stroke-width="1.345" stroke-linejoin="round"/><path d="M71.606 51.09V34.614a1.466 1.466 22.5 00-2.502-1.036L61.6 41.083a3.538 3.538 90 000 5.004l6.469 6.469a2.073 2.073 157.5 003.538-1.466z" fill="#ffc107" stroke="#000" stroke-width="1.345" stroke-linejoin="round"/><path d="M81.328 37.785l-4.315-4.315a1.1 1.1 157.5 00-1.877.777v3.538a2.654 2.654 45 002.654 2.654h2.439a1.554 1.554 112.5 001.099-2.654z" fill="#ff5722" stroke="#000" stroke-width="1.345" stroke-linejoin="round"/></svg>