<svg width="100" height="100" xml:space="preserve" xmlns="http://www.w3.org/2000/svg"><path d="m41.18 56.685 8.737 8.737a1.544 1.544 0 0 1 0 2.184l-4.177 4.177a7.993 7.993 0 0 1-11.304 0l-4.176-4.177a1.544 1.544 0 0 1 0-2.184l8.736-8.736a1.544 1.544 0 0 1 2.184 0z" style="fill:#ef435a;fill-opacity:1;fill-rule:evenodd;stroke:#000;stroke-width:1.61863;stroke-linecap:round;stroke-linejoin:round;stroke-dasharray:none;stroke-opacity:1"/><path style="fill:#e0e0e0;fill-rule:evenodd;stroke:#000;stroke-width:1.61862;stroke-linecap:round;stroke-linejoin:round" transform="rotate(45)" d="M69.2-7.482h12.357A1.54 1.54 0 0 1 83.1-5.938V6.418a1.54 1.54 0 0 1-1.544 1.544H69.2a1.54 1.54 0 0 1-1.544-1.544V-5.938A1.54 1.54 0 0 1 69.2-7.482z"/><path style="fill:#ffc11f;fill-opacity:1;fill-rule:evenodd;stroke:#000;stroke-width:1.61862;stroke-linecap:round;stroke-linejoin:round;stroke-dasharray:none;stroke-opacity:1" d="M56.346 39.335a1.544 1.544 0 0 0 0 2.184l8.737 8.736a1.544 1.544 0 0 0 2.184 0l8.736-8.736a1.544 1.544 0 0 0 0-2.184l-4.336-4.337a7.767 7.767 0 0 0-10.985 0zm8.623-.113a1.705 1.705 0 0 1 2.41 0 1.705 1.705 0 0 1 0 2.41 1.705 1.705 0 0 1-2.41 0 1.705 1.705 0 0 1 0-2.41z"/><path d="m37.213 26.63 12.756 12.756a1.544 1.544 0 0 1 0 2.184l-8.737 8.736a1.544 1.544 0 0 1-2.184 0L33.38 44.64a12.063 12.063 0 0 1 0-17.06l.95-.95a2.038 2.038 0 0 1 2.882 0z" style="fill:#1cc8eb;fill-opacity:1;fill-rule:evenodd;stroke:#000;stroke-width:1.61863;stroke-linecap:round;stroke-linejoin:round;stroke-dasharray:none;stroke-opacity:1"/></svg>