<?xml version="1.0" encoding="UTF-8" standalone="no"?>
<svg
   width="100"
   height="100"
   xml:space="preserve"
   version="1.1"
   id="svg4"
   sodipodi:docname="aves_icon_for_AS_ic_launcher_foreground.svg"
   inkscape:version="1.3.2 (091e20ef0f, 2023-11-25)"
   xmlns:inkscape="http://www.inkscape.org/namespaces/inkscape"
   xmlns:sodipodi="http://sodipodi.sourceforge.net/DTD/sodipodi-0.dtd"
   xmlns="http://www.w3.org/2000/svg"
   xmlns:svg="http://www.w3.org/2000/svg"><defs
     id="defs4" /><sodipodi:namedview
     id="namedview4"
     pagecolor="#ffffff"
     bordercolor="#666666"
     borderopacity="1.0"
     inkscape:showpageshadow="2"
     inkscape:pageopacity="0.0"
     inkscape:pagecheckerboard="0"
     inkscape:deskcolor="#d1d1d1"
     inkscape:zoom="7.93"
     inkscape:cx="50"
     inkscape:cy="50"
     inkscape:window-width="1870"
     inkscape:window-height="1011"
     inkscape:window-x="0"
     inkscape:window-y="0"
     inkscape:window-maximized="1"
     inkscape:current-layer="svg4" /><path
     d="m 41.028809,57.116717 8.307311,8.307311 a 1.4680655,1.4680655 0 0 1 0,2.07659 l -3.971573,3.971574 a 7.5999014,7.5999014 0 0 1 -10.748066,0 l -3.970622,-3.971574 a 1.4680655,1.4680655 0 0 1 0,-2.07659 l 8.30636,-8.306361 a 1.4680655,1.4680655 0 0 1 2.07659,0 z"
     style="fill:#ef435a;fill-opacity:1;fill-rule:evenodd;stroke:#000000;stroke-width:1.53903;stroke-linecap:round;stroke-linejoin:round;stroke-dasharray:none;stroke-opacity:1"
     id="path1" /><path
     style="fill:#e0e0e0;fill-rule:evenodd;stroke:#000000;stroke-width:1.53902;stroke-linecap:round;stroke-linejoin:round"
     d="m 53.429743,44.714431 8.307995,8.307994 a 1.4642622,1.4642622 0 0 1 -6.73e-4,2.075486 l -8.307322,8.307322 a 1.4642622,1.4642622 0 0 1 -2.076159,0 l -8.307321,-8.307322 a 1.4642622,1.4642622 0 0 1 0,-2.076158 l 8.307321,-8.307322 a 1.4642622,1.4642622 0 0 1 2.076159,0 z"
     id="path2" /><path
     style="fill:#ffc11f;fill-opacity:1;fill-rule:evenodd;stroke:#000000;stroke-width:1.53902;stroke-linecap:round;stroke-linejoin:round;stroke-dasharray:none;stroke-opacity:1"
     d="m 55.44894,40.619996 a 1.4680655,1.4680655 0 0 0 0,2.07659 l 8.307311,8.30636 a 1.4680655,1.4680655 0 0 0 2.07659,0 l 8.30636,-8.30636 a 1.4680655,1.4680655 0 0 0 0,-2.07659 l -4.122754,-4.123705 a 7.3850161,7.3850161 0 0 0 -10.444753,0 z m 8.198917,-0.107443 a 1.6211475,1.6211475 0 0 1 2.291476,0 1.6211475,1.6211475 0 0 1 0,2.291476 1.6211475,1.6211475 0 0 1 -2.291476,0 1.6211475,1.6211475 0 0 1 0,-2.291476 z"
     id="path3" /><path
     d="m 37.256907,28.539832 12.128656,12.128656 a 1.4680655,1.4680655 0 0 1 0,2.07659 l -8.307311,8.30636 a 1.4680655,1.4680655 0 0 1 -2.07659,0 l -5.389246,-5.387344 a 11.469737,11.469737 0 0 1 0,-16.220983 l 0.903278,-0.903279 a 1.9377704,1.9377704 0 0 1 2.740263,0 z"
     style="fill:#1cc8eb;fill-opacity:1;fill-rule:evenodd;stroke:#000000;stroke-width:1.53903;stroke-linecap:round;stroke-linejoin:round;stroke-dasharray:none;stroke-opacity:1"
     id="path4" /></svg>
