<?xml version="1.0" encoding="UTF-8" standalone="no"?>
<svg
   width="100"
   height="100"
   version="1.1"
   xml:space="preserve"
   id="SVGRoot"
   sodipodi:docname="aves_icon_original.svg"
   inkscape:version="1.3.2 (091e20ef0f, 2023-11-25)"
   xmlns:inkscape="http://www.inkscape.org/namespaces/inkscape"
   xmlns:sodipodi="http://sodipodi.sourceforge.net/DTD/sodipodi-0.dtd"
   xmlns="http://www.w3.org/2000/svg"
   xmlns:svg="http://www.w3.org/2000/svg"><defs
     id="defs1" /><sodipodi:namedview
     id="namedview1"
     pagecolor="#ffffff"
     bordercolor="#666666"
     borderopacity="1.0"
     inkscape:showpageshadow="2"
     inkscape:pageopacity="0.0"
     inkscape:pagecheckerboard="0"
     inkscape:deskcolor="#d1d1d1"
     inkscape:zoom="6"
     inkscape:cx="42.25"
     inkscape:cy="63.25"
     inkscape:window-width="1866"
     inkscape:window-height="1011"
     inkscape:window-x="0"
     inkscape:window-y="0"
     inkscape:window-maximized="1"
     inkscape:current-layer="SVGRoot" /><style
     type="text/css"
     id="style1" /><path
     id="tail"
     d="m 29.040554,62.547037 16.49737,16.497371 a 2.9163505,2.9163505 0 0 1 0,4.124342 l -7.886773,7.886774 a 15.093863,15.093863 0 0 1 -21.345534,0 L 8.4190482,83.168956 a 2.9163505,2.9163505 0 0 1 0,-4.124342 L 24.916418,62.547244 a 2.9163505,2.9163505 0 0 1 4.124341,0 z"
     style="fill:#ef435a;fill-opacity:1;fill-rule:evenodd;stroke:#000000;stroke-width:3.0565;stroke-linecap:round;stroke-linejoin:round;stroke-dasharray:none;stroke-opacity:1" /><path
     id="chest"
     style="fill:#e0e0e0;fill-rule:evenodd;stroke:#000000;stroke-width:3.05648;stroke-linecap:round;stroke-linejoin:round"
     d="m 53.669017,37.916691 16.497844,16.497844 c 1.142336,1.142336 1.142337,2.981619 10e-7,4.123954 L 53.669018,75.036334 c -1.142335,1.142335 -2.981619,1.142335 -4.123955,-10e-7 L 33.047219,58.538489 c -1.142335,-1.142335 -1.142335,-2.981619 0,-4.123954 L 49.545063,37.91669 c 1.142336,-1.142335 2.981619,-1.142335 4.123954,10e-7 z" /><path
     id="head"
     style="fill:#ffc11f;fill-opacity:1;fill-rule:evenodd;stroke:#000000;stroke-width:3.05648;stroke-linecap:round;stroke-linejoin:round;stroke-dasharray:none;stroke-opacity:1"
     d="m 57.678174,29.783588 a 2.9160763,2.9160763 0 0 0 0,4.124341 L 74.175543,50.4053 a 2.9160763,2.9160763 0 0 0 4.124343,0 L 94.797253,33.907929 a 2.9160763,2.9160763 0 0 0 0,-4.124341 l -8.188507,-8.188509 a 14.6673,14.6673 0 0 0 -20.742062,0 z m 16.283416,-0.213 a 3.2188591,3.2188591 0 0 1 4.551294,0 3.2188591,3.2188591 0 0 1 0,4.550341 3.2188591,3.2188591 0 0 1 -4.551294,0 3.2188591,3.2188591 0 0 1 0,-4.551294 z" /><path
     id="wing"
     d="M 21.548124,5.7923762 45.63552,29.879773 a 2.9163505,2.9163505 0 0 1 0,4.124343 L 29.138151,50.501485 a 2.9163505,2.9163505 0 0 1 -4.124342,0 L 14.313201,39.800878 a 22.779614,22.779614 0 0 1 0,-32.2152371 l 1.793265,-1.7932647 a 3.8478328,3.8478328 0 0 1 5.441658,0 z"
     style="fill:#1cc8eb;fill-opacity:1;fill-rule:evenodd;stroke:#000000;stroke-width:3.0565;stroke-linecap:round;stroke-linejoin:round;stroke-dasharray:none;stroke-opacity:1" /></svg>
