<svg width="100" height="100" xml:space="preserve" xmlns="http://www.w3.org/2000/svg"><path d="M31.784 63.612 48.252 80.08a2.911 2.911 0 0 1 0 4.116l-7.873 7.873a15.067 15.067 0 0 1-21.307 0L11.2 84.197a2.911 2.911 0 0 1 0-4.117l16.468-16.468a2.911 2.911 0 0 1 4.117 0z" style="fill:#ef435a;fill-opacity:1;fill-rule:evenodd;stroke:#000;stroke-width:3.05097;stroke-linecap:round;stroke-linejoin:round;stroke-dasharray:none;stroke-opacity:1"/><path style="fill:#e0e0e0;fill-rule:evenodd;stroke:#000;stroke-width:3.05095;stroke-linecap:round;stroke-linejoin:round" d="m56.368 39.026 16.469 16.468a2.904 2.904 0 0 1 0 4.117l-16.47 16.468a2.904 2.904 0 0 1-4.115 0L35.784 59.611a2.904 2.904 0 0 1 0-4.116l16.468-16.468a2.904 2.904 0 0 1 4.116 0z"/><path style="fill:#ffc11f;fill-opacity:1;fill-rule:evenodd;stroke:#000;stroke-width:3.05095;stroke-linecap:round;stroke-linejoin:round;stroke-dasharray:none;stroke-opacity:1" d="M60.37 30.908a2.91 2.91 0 0 0 0 4.117l16.468 16.467a2.91 2.91 0 0 0 4.116 0l16.468-16.467a2.91 2.91 0 0 0 0-4.117l-8.174-8.174a14.64 14.64 0 0 0-20.704 0zm16.254-.213a3.213 3.213 0 0 1 4.543 0 3.213 3.213 0 0 1 0 4.542 3.213 3.213 0 0 1-4.543 0 3.213 3.213 0 0 1 0-4.543z"/><path d="M24.305 6.96 48.35 31.004a2.911 2.911 0 0 1 0 4.117L31.882 51.588a2.911 2.911 0 0 1-4.117 0L17.084 40.907a22.738 22.738 0 0 1 0-32.157l1.79-1.79a3.84 3.84 0 0 1 5.431 0z" style="fill:#1cc8eb;fill-opacity:1;fill-rule:evenodd;stroke:#000;stroke-width:3.05097;stroke-linecap:round;stroke-linejoin:round;stroke-dasharray:none;stroke-opacity:1"/></svg>